<svg xmlns="http://www.w3.org/2000/svg">
    <symbol id="icon-close" width="20" height="20" viewBox="0 0 20 20" fill="none" xmlns="http://www.w3.org/2000/svg">
        <path
        d="M16.2882 14.9617C16.4644 15.1378 16.5633 15.3767 16.5633 15.6258C16.5633 15.8749 16.4644 16.1137 16.2882 16.2898C16.1121 16.466 15.8733 16.5649 15.6242 16.5649C15.3751 16.5649 15.1362 16.466 14.9601 16.2898L9.99997 11.3281L5.03825 16.2883C4.86213 16.4644 4.62326 16.5633 4.37418 16.5633C4.12511 16.5633 3.88624 16.4644 3.71012 16.2883C3.534 16.1122 3.43506 15.8733 3.43506 15.6242C3.43506 15.3751 3.534 15.1363 3.71012 14.9602L8.67184 10L3.71168 5.03828C3.53556 4.86216 3.43662 4.62329 3.43662 4.37422C3.43662 4.12515 3.53556 3.88628 3.71168 3.71016C3.8878 3.53404 4.12668 3.43509 4.37575 3.43509C4.62482 3.43509 4.86369 3.53404 5.03981 3.71016L9.99997 8.67188L14.9617 3.70938C15.1378 3.53326 15.3767 3.43431 15.6257 3.43431C15.8748 3.43431 16.1137 3.53326 16.2898 3.70938C16.4659 3.8855 16.5649 4.12437 16.5649 4.37344C16.5649 4.62251 16.4659 4.86138 16.2898 5.0375L11.3281 10L16.2882 14.9617Z"
        fill="currentColor" />
    </symbol>

    <symbol id="icon-arrow-down" width="16" height="16" viewBox="0 0 16 16" fill="none" xmlns="http://www.w3.org/2000/svg">
        <path
        d="M13.5306 6.53063L8.53063 11.5306C8.46095 11.6005 8.37816 11.656 8.28699 11.6939C8.19583 11.7317 8.09809 11.7512 7.99938 11.7512C7.90067 11.7512 7.80293 11.7317 7.71176 11.6939C7.6206 11.656 7.53781 11.6005 7.46813 11.5306L2.46813 6.53063C2.32723 6.38973 2.24808 6.19864 2.24808 5.99938C2.24808 5.80012 2.32723 5.60902 2.46813 5.46813C2.60902 5.32723 2.80012 5.24808 2.99938 5.24808C3.19864 5.24808 3.38973 5.32723 3.53063 5.46813L8 9.9375L12.4694 5.4675C12.6103 5.32661 12.8014 5.24745 13.0006 5.24745C13.1999 5.24745 13.391 5.32661 13.5319 5.4675C13.6728 5.6084 13.7519 5.7995 13.7519 5.99875C13.7519 6.19801 13.6728 6.38911 13.5319 6.53L13.5306 6.53063Z"
        fill="black" />
    </symbol>

    <symbol id="icon-search" width="24" height="24" viewBox="0 0 24 24" fill="none" xmlns="http://www.w3.org/2000/svg">
        <path
        d="M21.7959 20.2041L17.3437 15.75C18.6787 14.0104 19.3019 11.8282 19.087 9.64607C18.8722 7.4639 17.8353 5.44516 16.1867 3.99937C14.5382 2.55357 12.4014 1.78899 10.2098 1.86071C8.01829 1.93244 5.93607 2.8351 4.38558 4.38559C2.83509 5.93608 1.93243 8.0183 1.8607 10.2098C1.78898 12.4014 2.55356 14.5382 3.99936 16.1867C5.44515 17.8353 7.46389 18.8722 9.64606 19.087C11.8282 19.3019 14.0104 18.6787 15.75 17.3438L20.2059 21.8006C20.3106 21.9053 20.4348 21.9883 20.5715 22.0449C20.7083 22.1016 20.8548 22.1307 21.0028 22.1307C21.1508 22.1307 21.2973 22.1016 21.4341 22.0449C21.5708 21.9883 21.695 21.9053 21.7997 21.8006C21.9043 21.696 21.9873 21.5717 22.044 21.435C22.1006 21.2983 22.1298 21.1517 22.1298 21.0037C22.1298 20.8558 22.1006 20.7092 22.044 20.5725C21.9873 20.4358 21.9043 20.3115 21.7997 20.2069L21.7959 20.2041ZM4.12499 10.5C4.12499 9.23915 4.49888 8.0066 5.19938 6.95824C5.89987 5.90988 6.89551 5.09278 8.06039 4.61027C9.22527 4.12776 10.5071 4.00151 11.7437 4.2475C12.9803 4.49348 14.1162 5.10064 15.0078 5.9922C15.8994 6.88376 16.5065 8.01967 16.7525 9.2563C16.9985 10.4929 16.8722 11.7747 16.3897 12.9396C15.9072 14.1045 15.0901 15.1001 14.0418 15.8006C12.9934 16.5011 11.7608 16.875 10.5 16.875C8.80977 16.8733 7.18927 16.2011 5.99411 15.0059C4.79894 13.8107 4.12673 12.1902 4.12499 10.5Z"
        fill="currentColor"/>
    </symbol>

    <symbol id="icon-cart" width="24" height="24" viewBox="0 0 24 24" fill="none" xmlns="http://www.w3.org/2000/svg">
      <path d="M9.375 20.25C9.375 20.6208 9.26503 20.9834 9.059 21.2917C8.85298 21.6 8.56014 21.8404 8.21753 21.9823C7.87492 22.1242 7.49792 22.1613 7.1342 22.089C6.77049 22.0166 6.4364 21.838 6.17417 21.5758C5.91195 21.3136 5.73337 20.9795 5.66103 20.6158C5.58868 20.2521 5.62581 19.8751 5.76773 19.5325C5.90964 19.1899 6.14996 18.897 6.45831 18.691C6.76665 18.485 7.12916 18.375 7.5 18.375C7.99728 18.375 8.47419 18.5725 8.82582 18.9242C9.17745 19.2758 9.375 19.7527 9.375 20.25ZM17.25 18.375C16.8792 18.375 16.5166 18.485 16.2083 18.691C15.9 18.897 15.6596 19.1899 15.5177 19.5325C15.3758 19.8751 15.3387 20.2521 15.411 20.6158C15.4834 20.9795 15.662 21.3136 15.9242 21.5758C16.1864 21.838 16.5205 22.0166 16.8842 22.089C17.2479 22.1613 17.6249 22.1242 17.9675 21.9823C18.3101 21.8404 18.603 21.6 18.809 21.2917C19.015 20.9834 19.125 20.6208 19.125 20.25C19.125 19.7527 18.9275 19.2758 18.5758 18.9242C18.2242 18.5725 17.7473 18.375 17.25 18.375ZM22.0753 7.08094L19.5169 15.3966C19.3535 15.9343 19.0211 16.4051 18.569 16.739C18.1169 17.0729 17.5692 17.2521 17.0072 17.25H7.77469C7.2046 17.2482 6.65046 17.0616 6.1953 16.7183C5.74015 16.3751 5.40848 15.8936 5.25 15.3459L2.04469 4.125H1.125C0.826631 4.125 0.540483 4.00647 0.329505 3.7955C0.118526 3.58452 0 3.29837 0 3C0 2.70163 0.118526 2.41548 0.329505 2.2045C0.540483 1.99353 0.826631 1.875 1.125 1.875H2.32687C2.73407 1.87626 3.12988 2.00951 3.45493 2.25478C3.77998 2.50004 4.01674 2.84409 4.12969 3.23531L4.81312 5.625H21C21.1761 5.62499 21.3497 5.6663 21.5069 5.74561C21.664 5.82492 21.8004 5.94001 21.905 6.08164C22.0096 6.22326 22.0795 6.38746 22.1091 6.56102C22.1387 6.73458 22.1271 6.91266 22.0753 7.08094ZM19.4766 7.875H5.45531L7.41375 14.7281C7.43617 14.8065 7.48354 14.8755 7.54867 14.9245C7.6138 14.9736 7.69315 15.0001 7.77469 15H17.0072C17.0875 15.0002 17.1656 14.9746 17.2303 14.927C17.2949 14.8794 17.3426 14.8123 17.3662 14.7356L19.4766 7.875Z" fill="black" />
    </symbol>

    <symbol id="icon-user" width="24" height="24" viewBox="0 0 24 24" fill="none" xmlns="http://www.w3.org/2000/svg">
        <path d="M12 1.875C9.99747 1.875 8.0399 2.46882 6.37486 3.58137C4.70981 4.69392 3.41206 6.27523 2.64572 8.12533C1.87939 9.97543 1.67888 12.0112 2.06955 13.9753C2.46023 15.9393 3.42454 17.7435 4.84055 19.1595C6.25656 20.5755 8.06066 21.5398 10.0247 21.9305C11.9888 22.3211 14.0246 22.1206 15.8747 21.3543C17.7248 20.5879 19.3061 19.2902 20.4186 17.6251C21.5312 15.9601 22.125 14.0025 22.125 12C22.122 9.3156 21.0543 6.74199 19.1562 4.84383C17.258 2.94567 14.6844 1.87798 12 1.875ZM7.45969 18.4284C7.98195 17.7143 8.66528 17.1335 9.45418 16.7331C10.2431 16.3327 11.1153 16.124 12 16.124C12.8847 16.124 13.7569 16.3327 14.5458 16.7331C15.3347 17.1335 16.0181 17.7143 16.5403 18.4284C15.2134 19.3695 13.6268 19.875 12 19.875C10.3732 19.875 8.78665 19.3695 7.45969 18.4284ZM9.375 11.25C9.375 10.7308 9.52896 10.2233 9.8174 9.79163C10.1058 9.35995 10.5158 9.0235 10.9955 8.82482C11.4751 8.62614 12.0029 8.57415 12.5121 8.67544C13.0213 8.77672 13.489 9.02673 13.8562 9.39384C14.2233 9.76096 14.4733 10.2287 14.5746 10.7379C14.6759 11.2471 14.6239 11.7749 14.4252 12.2545C14.2265 12.7342 13.8901 13.1442 13.4584 13.4326C13.0267 13.721 12.5192 13.875 12 13.875C11.3038 13.875 10.6361 13.5984 10.1438 13.1062C9.65157 12.6139 9.375 11.9462 9.375 11.25ZM18.1875 16.8694C17.4583 15.9419 16.5289 15.1914 15.4688 14.6737C16.1444 13.9896 16.6026 13.1208 16.7858 12.1769C16.9689 11.2329 16.8688 10.2558 16.498 9.36861C16.1273 8.4814 15.5024 7.72364 14.702 7.19068C13.9017 6.65771 12.9616 6.37334 12 6.37334C11.0384 6.37334 10.0983 6.65771 9.29797 7.19068C8.49762 7.72364 7.87275 8.4814 7.50198 9.36861C7.13121 10.2558 7.0311 11.2329 7.21424 12.1769C7.39739 13.1208 7.85561 13.9896 8.53125 14.6737C7.4711 15.1914 6.54168 15.9419 5.8125 16.8694C4.89661 15.7083 4.32614 14.3129 4.1664 12.8427C4.00665 11.3725 4.2641 9.88711 4.90925 8.55644C5.55441 7.22578 6.5612 6.10366 7.81439 5.31855C9.06757 4.53343 10.5165 4.11703 11.9953 4.11703C13.4741 4.11703 14.9231 4.53343 16.1762 5.31855C17.4294 6.10366 18.4362 7.22578 19.0814 8.55644C19.7265 9.88711 19.984 11.3725 19.8242 12.8427C19.6645 14.3129 19.094 15.7083 18.1781 16.8694H18.1875Z" fill="black" />
    </symbol>

    <symbol id="icon-star-fill" width="19" height="17" viewBox="0 0 19 17" fill="none" xmlns="http://www.w3.org/2000/svg">
        <path d="M9.24494 0.255005L11.8641 5.89491L18.0374 6.6431L13.4829 10.8769L14.679 16.9793L9.24494 13.956L3.8109 16.9793L5.00697 10.8769L0.452479 6.6431L6.62573 5.89491L9.24494 0.255005Z" fill="#FFC633" />
    </symbol>

    <symbol id="icon-star-half" width="9" height="17" viewBox="0 0 9 17" fill="none" xmlns="http://www.w3.org/2000/svg">
     <path d="M3.56595 16.9793L8.99999 13.956V0.255005L6.38079 5.89491L0.207535 6.6431L4.76203 10.8769L3.56595 16.9793Z" fill="#FFC633" />
    </symbol>

    <symbol id="icon-confirm" width="24" height="25" viewBox="0 0 24 25" fill="none" xmlns="http://www.w3.org/2000/svg">
        <path d="M12 2.8291C10.0716 2.8291 8.18657 3.40093 6.58319 4.47227C4.97982 5.54362 3.73013 7.06636 2.99218 8.84794C2.25422 10.6295 2.06114 12.5899 2.43735 14.4812C2.81355 16.3725 3.74215 18.1098 5.10571 19.4734C6.46928 20.837 8.20656 21.7656 10.0979 22.1418C11.9892 22.518 13.9496 22.3249 15.7312 21.5869C17.5127 20.849 19.0355 19.5993 20.1068 17.9959C21.1782 16.3925 21.75 14.5075 21.75 12.5791C21.7473 9.99408 20.7192 7.51571 18.8913 5.68783C17.0634 3.85994 14.585 2.83183 12 2.8291ZM16.2806 10.8597L11.0306 16.1097C10.961 16.1795 10.8783 16.2348 10.7872 16.2725C10.6962 16.3103 10.5986 16.3297 10.5 16.3297C10.4014 16.3297 10.3038 16.3103 10.2128 16.2725C10.1218 16.2348 10.039 16.1795 9.96938 16.1097L7.71938 13.8597C7.57865 13.719 7.49959 13.5281 7.49959 13.3291C7.49959 13.1301 7.57865 12.9392 7.71938 12.7985C7.86011 12.6577 8.05098 12.5787 8.25 12.5787C8.44903 12.5787 8.6399 12.6577 8.78063 12.7985L10.5 14.5188L15.2194 9.79848C15.2891 9.72879 15.3718 9.67352 15.4628 9.63581C15.5539 9.59809 15.6515 9.57868 15.75 9.57868C15.8486 9.57868 15.9461 9.59809 16.0372 9.63581C16.1282 9.67352 16.2109 9.72879 16.2806 9.79848C16.3503 9.86816 16.4056 9.95088 16.4433 10.0419C16.481 10.133 16.5004 10.2306 16.5004 10.3291C16.5004 10.4276 16.481 10.5252 16.4433 10.6163C16.4056 10.7073 16.3503 10.79 16.2806 10.8597Z" fill="#01AB31" />
    </symbol>

    <symbol id="icon-arrow-left" width="24" height="24" viewBox="0 0 24 24" fill="none" xmlns="http://www.w3.org/2000/svg">
        <path d="M9.70406 4.4541L2.95406 11.2041C2.84918 11.3086 2.76597 11.4328 2.70919 11.5696C2.6524 11.7063 2.62317 11.8529 2.62317 12.001C2.62317 12.149 2.6524 12.2957 2.70919 12.4324C2.76597 12.5691 2.84918 12.6933 2.95406 12.7979L9.70406 19.5479C9.91541 19.7592 10.2021 19.8779 10.5009 19.8779C10.7998 19.8779 11.0865 19.7592 11.2978 19.5479C11.5092 19.3365 11.6279 19.0499 11.6279 18.751C11.6279 18.4521 11.5092 18.1654 11.2978 17.9541L6.46875 13.125L20.25 13.125C20.5484 13.125 20.8345 13.0065 21.0455 12.7955C21.2565 12.5846 21.375 12.2984 21.375 12C21.375 11.7017 21.2565 11.4155 21.0455 11.2045C20.8345 10.9936 20.5484 10.875 20.25 10.875L6.46875 10.875L11.2987 6.04598C11.5101 5.83463 11.6288 5.54799 11.6288 5.2491C11.6288 4.95022 11.5101 4.66357 11.2987 4.45223C11.0874 4.24088 10.8008 4.12215 10.5019 4.12215C10.203 4.12215 9.91634 4.24088 9.705 4.45223L9.70406 4.4541Z" fill="black" />
    </symbol>

    <symbol id="icon-arrow-right" width="24" height="24" viewBox="0 0 24 24" fill="none" xmlns="http://www.w3.org/2000/svg">
        <path d="M14.2959 4.4541L21.0459 11.2041C21.1508 11.3086 21.234 11.4328 21.2908 11.5696C21.3476 11.7063 21.3768 11.8529 21.3768 12.001C21.3768 12.149 21.3476 12.2957 21.2908 12.4324C21.234 12.5691 21.1508 12.6933 21.0459 12.7979L14.2959 19.5479C14.0846 19.7592 13.7979 19.8779 13.4991 19.8779C13.2002 19.8779 12.9135 19.7592 12.7022 19.5479C12.4908 19.3365 12.3721 19.0499 12.3721 18.751C12.3721 18.4521 12.4908 18.1654 12.7022 17.9541L17.5313 13.125L3.75 13.125C3.45163 13.125 3.16548 13.0065 2.9545 12.7955C2.74353 12.5846 2.625 12.2984 2.625 12C2.625 11.7017 2.74353 11.4155 2.95451 11.2045C3.16548 10.9936 3.45163 10.875 3.75 10.875L17.5313 10.875L12.7013 6.04598C12.4899 5.83463 12.3712 5.54799 12.3712 5.2491C12.3712 4.95022 12.4899 4.66357 12.7013 4.45223C12.9126 4.24088 13.1992 4.12215 13.4981 4.12215C13.797 4.12215 14.0837 4.24088 14.295 4.45223L14.2959 4.4541Z" fill="black" />
    </symbol>

    <symbol id="icon-email" width="24" height="24" viewBox="0 0 24 24" fill="none" xmlns="http://www.w3.org/2000/svg">
        <path d="M21 4.125H3C2.70163 4.125 2.41548 4.24353 2.2045 4.4545C1.99353 4.66548 1.875 4.95163 1.875 5.25V18C1.875 18.4973 2.07254 18.9742 2.42417 19.3258C2.77581 19.6775 3.25272 19.875 3.75 19.875H20.25C20.7473 19.875 21.2242 19.6775 21.5758 19.3258C21.9275 18.9742 22.125 18.4973 22.125 18V5.25C22.125 4.95163 22.0065 4.66548 21.7955 4.4545C21.5845 4.24353 21.2984 4.125 21 4.125ZM12 11.9738L5.89219 6.375H18.1078L12 11.9738ZM8.69906 12L4.125 16.1925V7.8075L8.69906 12ZM10.3641 13.5262L11.2397 14.3297C11.4472 14.52 11.7185 14.6255 12 14.6255C12.2815 14.6255 12.5528 14.52 12.7603 14.3297L13.6359 13.5262L18.1078 17.625H5.89219L10.3641 13.5262ZM15.3009 12L19.875 7.8075V16.1925L15.3009 12Z" fill="black" fill-opacity="0.4" />
    </symbol>

    <symbol id="icon-twitter" width="12" height="10" viewBox="0 0 12 10" fill="currentColor" xmlns="http://www.w3.org/2000/svg">
        <path d="M11.2071 1.9831C10.7881 2.16933 10.3458 2.28573 9.88023 2.35557C10.3458 2.07622 10.7183 1.63392 10.8812 1.0985C10.4389 1.35457 9.95006 1.5408 9.41465 1.6572C8.99562 1.2149 8.39037 0.935547 7.73856 0.935547C6.48149 0.935547 5.45721 1.95982 5.45721 3.21689C5.45721 3.40312 5.48049 3.56608 5.52705 3.72903C3.64145 3.63591 1.94208 2.72803 0.801411 1.33129C0.615178 1.68048 0.498783 2.05294 0.498783 2.47196C0.498783 3.26345 0.894527 3.96182 1.52306 4.38084C1.1506 4.35756 0.801411 4.26445 0.475504 4.10149V4.12477C0.475504 5.24216 1.26699 6.17333 2.31455 6.38284C2.12831 6.42939 1.9188 6.45267 1.70929 6.45267C1.56962 6.45267 1.40666 6.42939 1.26699 6.40612C1.56962 7.314 2.40766 7.98909 3.40866 7.98909C2.61717 8.59434 1.63945 8.96681 0.56862 8.96681C0.382388 8.96681 0.196156 8.96681 0.0332031 8.94353C1.05748 9.59534 2.24471 9.96781 3.54833 9.96781C7.76184 9.96781 10.0665 6.47595 10.0665 3.44968C10.0665 3.35656 10.0665 3.24017 10.0665 3.14705C10.5088 2.84443 10.9045 2.44868 11.2071 1.9831Z" fill="currentColor" />
    </symbol>

    <symbol id="icon-facebook" width="8" height="13" viewBox="0 0 8 13" fill="currentColor" xmlns="http://www.w3.org/2000/svg">
        <path d="M2.70873 12.3038V6.75026H0.839844V4.58594H2.70873V2.98981C2.70873 1.13752 3.84005 0.128906 5.49242 0.128906C6.28392 0.128906 6.96418 0.187836 7.16243 0.214175V2.14993L6.01642 2.15045C5.11776 2.15045 4.94376 2.57748 4.94376 3.20411V4.58594H7.08697L6.80791 6.75026H4.94376V12.3038H2.70873Z" fill="currentColor" />
    </symbol>

    <symbol id="icon-instagram" width="14" height="14" viewBox="0 0 14 14" fill="currentColor" xmlns="http://www.w3.org/2000/svg">
        <path d="M7.00076 1.44721C8.80947 1.44721 9.02366 1.45398 9.73818 1.48656C10.1678 1.49182 10.5933 1.5707 10.9962 1.71979C11.2884 1.83248 11.5538 2.00511 11.7753 2.22656C11.9967 2.44802 12.1694 2.71339 12.282 3.00559C12.4311 3.40853 12.51 3.83406 12.5153 4.26366C12.5475 4.97817 12.5546 5.19237 12.5546 7.00108C12.5546 8.80979 12.5479 9.02398 12.5153 9.7385C12.51 10.1681 12.4311 10.5936 12.282 10.9966C12.1694 11.2888 11.9967 11.5541 11.7753 11.7756C11.5538 11.997 11.2884 12.1697 10.9962 12.2824C10.5933 12.4315 10.1678 12.5103 9.73818 12.5156C9.02398 12.5479 8.80979 12.5549 7.00076 12.5549C5.19172 12.5549 4.97753 12.5482 4.26334 12.5156C3.83373 12.5103 3.40821 12.4315 3.00527 12.2824C2.71307 12.1697 2.44769 11.997 2.22624 11.7756C2.00479 11.5541 1.83216 11.2888 1.71947 10.9966C1.57038 10.5936 1.4915 10.1681 1.48624 9.7385C1.45398 9.02398 1.44689 8.80979 1.44689 7.00108C1.44689 5.19237 1.45366 4.97817 1.48624 4.26366C1.4915 3.83406 1.57038 3.40853 1.71947 3.00559C1.83216 2.71339 2.00479 2.44802 2.22624 2.22656C2.44769 2.00511 2.71307 1.83248 3.00527 1.71979C3.40821 1.5707 3.83373 1.49182 4.26334 1.48656C4.97785 1.4543 5.19205 1.44721 7.00076 1.44721ZM7.00076 0.226562C5.16205 0.226562 4.93043 0.234304 4.20785 0.267208C3.64561 0.278391 3.08934 0.384847 2.56269 0.582046C2.11092 0.752261 1.70172 1.019 1.36366 1.36366C1.01869 1.70184 0.751722 2.11127 0.581401 2.56334C0.384201 3.08998 0.277746 3.64625 0.266563 4.2085C0.234304 4.93043 0.226562 5.16205 0.226562 7.00076C0.226562 8.83946 0.234304 9.07108 0.267208 9.79366C0.278391 10.3559 0.384847 10.9122 0.582046 11.4388C0.752178 11.8908 1.01892 12.3002 1.36366 12.6385C1.70191 12.9832 2.11133 13.25 2.56334 13.4201C3.08998 13.6173 3.64626 13.7238 4.2085 13.7349C4.93108 13.7672 5.16172 13.7756 7.0014 13.7756C8.84108 13.7756 9.07172 13.7679 9.7943 13.7349C10.3565 13.7238 10.9128 13.6173 11.4395 13.4201C11.8893 13.2457 12.2978 12.9794 12.6389 12.6381C12.98 12.2968 13.246 11.8882 13.4201 11.4382C13.6173 10.9115 13.7238 10.3553 13.735 9.79301C13.7672 9.07108 13.775 8.83946 13.775 7.00076C13.775 5.16205 13.7672 4.93043 13.7343 4.20785C13.7231 3.64561 13.6167 3.08934 13.4195 2.56269C13.2493 2.11068 12.9826 1.70126 12.6379 1.36301C12.2996 1.01828 11.8902 0.751533 11.4382 0.581401C10.9115 0.384201 10.3553 0.277746 9.79301 0.266563C9.07108 0.234304 8.83947 0.226562 7.00076 0.226562Z" fill="currentColor" />
        <path d="M7.00215 3.52344C6.31413 3.52344 5.64155 3.72746 5.06948 4.10971C4.49741 4.49195 4.05154 5.03525 3.78824 5.6709C3.52494 6.30655 3.45605 7.00601 3.59028 7.68081C3.72451 8.35561 4.05582 8.97546 4.54233 9.46197C5.02884 9.94847 5.64868 10.2798 6.32349 10.414C6.99829 10.5482 7.69774 10.4794 8.33339 10.2161C8.96904 9.95276 9.51234 9.50689 9.89459 8.93481C10.2768 8.36274 10.4809 7.69017 10.4809 7.00215C10.4809 6.07954 10.1144 5.19471 9.46197 4.54233C8.80958 3.88994 7.92476 3.52344 7.00215 3.52344ZM7.00215 9.26021C6.55555 9.26021 6.11897 9.12778 5.74764 8.87966C5.3763 8.63154 5.08688 8.27888 4.91597 7.86627C4.74506 7.45366 4.70034 6.99964 4.78747 6.56162C4.8746 6.1236 5.08966 5.72125 5.40546 5.40545C5.72125 5.08966 6.1236 4.8746 6.56162 4.78747C6.99964 4.70034 7.45367 4.74506 7.86627 4.91597C8.27888 5.08687 8.63154 5.3763 8.87966 5.74763C9.12778 6.11897 9.26021 6.55554 9.26021 7.00215C9.26021 7.60102 9.02231 8.17537 8.59884 8.59884C8.17537 9.02231 7.60102 9.26021 7.00215 9.26021Z" fill="currentColor" />
        <path d="M10.6176 4.19807C11.0665 4.19807 11.4305 3.83412 11.4305 3.38517C11.4305 2.93621 11.0665 2.57227 10.6176 2.57227C10.1686 2.57227 9.80469 2.93621 9.80469 3.38517C9.80469 3.83412 10.1686 4.19807 10.6176 4.19807Z" fill="currentColor" />
    </symbol>

    <symbol id="icon-github" width="14" height="13" viewBox="0 0 14 13" fill="currentColor" xmlns="http://www.w3.org/2000/svg">
        <path fill-rule="evenodd" clip-rule="evenodd" d="M6.60685 0.226562C3.01591 0.226562 0.126953 3.11552 0.126953 6.70646C0.126953 9.56841 1.98992 11.9984 4.55488 12.8624C4.87888 12.9164 4.98688 12.7274 4.98688 12.5384C4.98688 12.3764 4.98688 11.9714 4.98688 11.4314C3.1779 11.8364 2.79991 10.5674 2.79991 10.5674C2.50291 9.81141 2.07092 9.62241 2.07092 9.62241C1.47693 9.21742 2.12492 9.21742 2.12492 9.21742C2.77291 9.27142 3.1239 9.89241 3.1239 9.89241C3.6909 10.8914 4.63588 10.5944 5.01387 10.4324C5.06787 10.0004 5.22987 9.73041 5.41887 9.56841C3.98789 9.40642 2.47592 8.83942 2.47592 6.35546C2.47592 5.65347 2.71891 5.05948 3.1509 4.62749C3.09691 4.46549 2.85391 3.8175 3.2049 2.89952C3.2049 2.89952 3.74489 2.73752 4.98688 3.57451C5.49987 3.43951 6.06686 3.35851 6.60685 3.35851C7.14684 3.35851 7.71383 3.43951 8.22682 3.57451C9.4688 2.73752 10.0088 2.89952 10.0088 2.89952C10.3598 3.79051 10.1438 4.43849 10.0628 4.62749C10.4678 5.08648 10.7378 5.65347 10.7378 6.35546C10.7378 8.83942 9.22581 9.37942 7.76783 9.54141C8.01083 9.73041 8.19982 10.1354 8.19982 10.7294C8.19982 11.5934 8.19982 12.2954 8.19982 12.5114C8.19982 12.6734 8.30782 12.8894 8.65882 12.8354C11.2238 11.9984 13.0867 9.56841 13.0867 6.70646C13.0867 3.11552 10.1978 0.226562 6.60685 0.226562Z" fill="currentColor" />
    </symbol>
</svg>
